Exact Audio Copy V0.99 prebeta 1 from 25. May 2007

EAC 抓取日志文件从29. 十月 2010, 19:59

王洁实/谢莉斯 / 20世纪中华歌坛名人百集珍藏版

使用驱动器  ：BENQ    DVD-ROM 16X   Adapter: 0  ID: 1

读取模式     : 保护
使用精确流   : 是
废除音频缓冲 : 是
使用 C2 指针 : 否

读取偏移校正                   : 738
读取 Lead-In 和 Lead-Out       : 否
用静音填充抓取中丢失偏移的采样 : 是
去除首尾静音块                 : 否
已用接口                       : 已安装外部 ASPI 接口

所用输出格式 : 内部 WAV 函数
样本格式     : 44.100 Hz;16 Bit;立体声


被抓轨 CD 的 TOC

     音轨 |   开始   |   长度   | 起始扇区 | 结尾扇区 
    --------------------------------------------------
       1  |  0:00.00 |  3:40.37 |       0  |   16536  
       2  |  3:40.37 |  3:34.65 |   16537  |   32651  
       3  |  7:15.27 |  3:22.08 |   32652  |   47809  
       4  | 10:37.35 |  3:25.05 |   47810  |   63189  
       5  | 14:02.40 |  4:18.45 |   63190  |   82584  
       6  | 18:21.10 |  2:02.20 |   82585  |   91754  
       7  | 20:23.30 |  3:05.22 |   91755  |  105651  
       8  | 23:28.52 |  4:42.60 |  105652  |  126861  
       9  | 28:11.37 |  2:22.05 |  126862  |  137516  
      10  | 30:33.42 |  2:54.35 |  137517  |  150601  
      11  | 33:28.02 |  3:06.45 |  150602  |  164596  
      12  | 36:34.47 |  2:55.33 |  164597  |  177754  
      13  | 39:30.05 |  1:51.45 |  177755  |  186124  
      14  | 41:21.50 |  3:47.00 |  186125  |  203149  
      15  | 45:08.50 |  3:47.27 |  203150  |  220201  
      16  | 48:56.02 |  2:29.10 |  220202  |  231386  
      17  | 51:25.12 |  2:38.53 |  231387  |  243289  
      18  | 54:03.65 |  1:57.22 |  243290  |  252086  
      19  | 56:01.12 |  2:54.50 |  252087  |  265186  


范围状态及错误

已选择范围

     文件名 E:\文件夹\20世纪中华歌坛名人百集珍藏版-王洁实 谢莉斯[lwg188原创]\王洁实 谢莉斯 - 20世纪中华歌坛名人百集珍藏版.wav

     峰值电平 99.9 %
     范围质量 99.9 %
     复制 CRC 32C68F3B
     复制成功

没有错误发生

状态报告结尾
